<?xml version="1.0" encoding="utf-8"?>
<?xml-stylesheet type="text/xsl" href="rss1.xsl"?>
<rss version="2.0" xmlns:atom="http://www.w3.org/2005/Atom" xmlns:content="http://purl.org/rss/1.0/modules/content/" xmlns:dc="http://purl.org/dc/elements/1.1/" xmlns:media="http://search.yahoo.com/mrss/">
<channel>
 <title>Getty</title>
 <link>http://www.gettyimg.com/</link>
 <atom:link href="http://www.gettyimg.com/" rel="self" type="application/rss+xml" />

 
                <item>
                <title><![CDATA[【HD Live Performances】HDTV - Selena Gomez - Citi Concert Series - Today 2015-10-12 1080i HDTV DD5.1 MPEG2-TrollHD]]></title>
                <link><![CDATA[https://sharemania.us/threads/selena-gomez-citi-concert-series-today-2015-10-12-1080i-hdtv-dd5-1-mpeg2-trollhd.238812/]]></link>
                <description><![CDATA[<article>
<blockquote class="messageText SelectQuoteContainer ugc baseHtml">
<img src="https://img94.pixhost.to/images/47/449644472_selena-gomez-citi-concert-series-today-2015-10-12-1080i-hdtv-dd5-1-mpeg2-tro.jpg" class="bbCodeImage LbImage" alt="[​IMG]" data-url="https://img94.pixhost.to/images/47/449644472_selena-gomez-citi-concert-series-today-2015-10-12-1080i-hdtv-dd5-1-mpeg2-tro.jpg" style=""><br>
<img src="https://img94.pixhost.to/images/47/449644473_selena-gomez-citi-concert-series-today-2015-10-12-1080i-hdtv-dd5-1-mpeg2-tro.jpg" class="bbCodeImage LbImage" alt="[​IMG]" data-url="https://img94.pixhost.to/images/47/449644473_selena-gomez-citi-concert-series-today-2015-10-12-1080i-hdtv-dd5-1-mpeg2-tro.jpg" style=""><br>
<div class="ToggleTriggerAnchor bbCodeSpoilerContainer">
<button type="button" class="button bbCodeSpoilerButton ToggleTrigger Tooltip JsOnly" data-target="> .SpoilerTarget"><span>Spoiler: <span class="SpoilerTitle">MediaInfo</span></span></button>
<div class="SpoilerTarget bbCodeSpoilerText">General<br>
ID : 1 (0x1)<br>
Complete name : Selena Gomez - Citi Concert Series - Today 2015-10-12 1080i HDTV DD5.1 MPEG2-TrollHD.ts<br>
Format : MPEG-TS<br>
File size : 2.72 GiB<br>
Duration : 22 min 24 s<br>
Overall bit rate mode : Variable<br>
Overall bit rate : 17.4 Mb/s<br>
Frame rate : 29.970 FPS<br>
Law rating : TV-14 (DLV)<br>
<br>
Video<br>
ID : 7541 (0x1D75)<br>
Menu ID : 1027 (0x403)<br>
Format : MPEG Video<br>
Format version : Version 2<br>
Format profile : Main@High<br>
Format settings : CustomMatrix / BVOP<br>
Format settings, BVOP : Yes<br>
Format settings, Matrix : Custom<br>
Format settings, GOP : Variable<br>
Format settings, picture st : Frame<br>
Codec ID : 2<br>
Duration : 22 min 24 s<br>
Bit rate mode : Variable<br>
Bit rate : 15.9 Mb/s<br>
Maximum bit rate : 24.0 Mb/s<br>
Width : 1 920 pixels<br>
Height : 1 080 pixels<br>
Display aspect ratio : 16:9<br>
Active Format Description : Full frame 16:9 image<br>
Frame rate : 29.970 (30000/1001) FPS<br>
Color space : YUV<br>
Chroma subsampling : 4:2:0<br>
Bit depth : 8 bits<br>
Scan type : Interlaced<br>
Scan order : Top Field First<br>
Compression mode : Lossy<br>
Bits/(Pixel*Frame) : 0.256<br>
Time code of first frame : 00:00:00;00<br>
Time code source : Group of pictures header<br>
GOP, Open/Closed : Open<br>
Stream size : 2.49 GiB (92%)<br>
<br>
Audio #1<br>
ID : 7542 (0x1D76)<br>
Menu ID : 1027 (0x403)<br>
Format : AC-3<br>
Format/Info : Audio Coding 3<br>
Commercial name : Dolby Digital<br>
Codec ID : 129<br>
Duration : 22 min 24 s<br>
Bit rate mode : Constant<br>
Bit rate : 384 kb/s<br>
Channel(s) : 6 channels<br>
Channel layout : L R C LFE Ls Rs<br>
Sampling rate : 48.0 kHz<br>
Frame rate : 31.250 FPS (1536 SPF)<br>
Compression mode : Lossy<br>
Delay relative to video : 30 ms<br>
Stream size : 61.5 MiB (2%)<br>
Language : English<br>
Service kind : Complete Main<br>
<br>
Audio #2<br>
ID : 7543 (0x1D77)<br>
Menu ID : 1027 (0x403)<br>
Format : AC-3<br>
Format/Info : Audio Coding 3<br>
Commercial name : Dolby Digital<br>
Codec ID : 129<br>
Duration : 22 min 24 s<br>
Bit rate mode : Constant<br>
Bit rate : 192 kb/s<br>
Channel(s) : 2 channels<br>
Channel layout : L R<br>
Sampling rate : 48.0 kHz<br>
Frame rate : 31.250 FPS (1536 SPF)<br>
Compression mode : Lossy<br>
Delay relative to video : 19 ms<br>
Stream size : 30.8 MiB (1%)<br>
Language : Spanish<br>
Service kind : Complete Main<br>
<br>
Text #1<br>
ID : 7541 (0x1D75)-CC1<br>
Menu ID : 1027 (0x403)<br>
Format : EIA-608<br>
Muxing mode : A/53 / DTVCC Transport<br>
Muxing mode, more info : Muxed in Video #1<br>
Duration : 22 min 24 s<br>
End time : 22 min 24 s<br>
Bit rate mode : Constant<br>
Stream size : 0.00 Byte (0%)<br>
Type of the first event : RollUp<br>
<br>
Text #2<br>
ID : 7541 (0x1D75)-T1<br>
Menu ID : 1027 (0x403)<br>
Format : EIA-608<br>
Muxing mode : A/53 / DTVCC Transport<br>
Muxing mode, more info : Muxed in Video #1<br>
Duration : 22 min 24 s<br>
End time : 22 min 23 s<br>
Bit rate mode : Constant<br>
Stream size : 0.00 Byte (0%)<br>
<br>
Text #3<br>
ID : 7541 (0x1D75)-1<br>
Menu ID : 1027 (0x403)<br>
Format : EIA-708<br>
Muxing mode : A/53 / DTVCC Transport<br>
Muxing mode, more info : Muxed in Video #1<br>
Duration : 22 min 24 s<br>
Bit rate mode : Constant<br>
Stream size : 0.00 Byte (0%)</div>
</div>
<div class="bbCodeBlock bbCodeVfcHH HiddenContent">
<div class="attribution type">Hidden Content:</div>
<blockquote>You must reply before you can see the hidden data contained here.</blockquote>
</div>
<div class="messageTextEndMarker">&nbsp;</div>
</blockquote>
</article>]]></description>
                <author><![CDATA[edgar]]></author>
                </item>

                
                <item>
                <title><![CDATA[【Requests】[REQ AUD] - Donna Summer "Encore"]]></title>
                <link><![CDATA[https://sharemania.us/threads/donna-summer-encore.238813/]]></link>
                <description><![CDATA[<article>
<blockquote class="messageText SelectQuoteContainer ugc baseHtml">
thank you
<div class="messageTextEndMarker">&nbsp;</div>
</blockquote>
</article>]]></description>
                <author><![CDATA[michaeldila]]></author>
                </item>

                </channel></rss>